<?xml version="1.0" encoding="utf-8"?>
<!-- Generator: Adobe Illustrator 27.4.0, SVG Export Plug-In . SVG Version: 6.00 Build 0)  -->
<svg version="1.1" id="Layer_1" xmlns="http://www.w3.org/2000/svg" xmlns:xlink="http://www.w3.org/1999/xlink" x="0px" y="0px"
	 viewBox="0 0 841.89 595.28" style="enable-background:new 0 0 841.89 595.28;" xml:space="preserve">
<style type="text/css">
	.st0{fill:none;stroke:#000000;stroke-miterlimit:10;}
</style>
<g>
	<polygon points="167.92,178.07 167.92,189.77 235.93,188.95 	"/>
	<polygon points="232.6,217.37 231.18,229.43 167.92,224.62 	"/>
	<polygon points="224.96,282.42 167.92,283.78 167.92,272.09 	"/>
	<polygon points="236.94,180.37 236.94,289.74 224.1,289.74 	"/>
	<ellipse class="st0" cx="408.19" cy="238.44" rx="48.15" ry="53.66"/>
	<polygon points="551.4,176.41 553,285.55 539.7,285.55 	"/>
	<polygon points="483.75,285.55 497.97,285.55 551.4,176.41 	"/>
	<path class="st0" d="M544.1,246.44c0,0-167.97-38.11,7.3-70.03"/>
	<path d="M510.95,185.45c0,0-32.26,10.68-32.08,13.31c0,0-18.25,11.31,1.51,23.48l6.15,3.92
		C486.54,226.17,450.45,204.81,510.95,185.45z"/>
	<path d="M391.73,187.69c0,0-28.09,12.33-31.7,44.7C360.03,232.39,367.78,202.36,391.73,187.69z"/>
	<path d="M455.48,228.26c0,0,8.15,43.55-33.14,61.48C422.33,289.74,454.25,275.89,455.48,228.26z"/>
	<g>
		<path d="M249.23,196.39c0,0,20.65-16.95,40.85-13.04c0,0,14.98,2.63,21.24,13.93c6.55,11.82,2.19,21.09-3.58,30.8l-7.43,19.47
			C300.32,247.56,324.99,158.67,249.23,196.39z"/>
		<path d="M351,284.65c0,0-20.65,16.95-40.85,13.04c0,0-14.98-2.63-21.24-13.93c-6.55-11.82-2.19-21.09,3.58-30.8l7.43-19.47
			C299.91,233.48,275.24,322.36,351,284.65z"/>
	</g>
	<path class="st0" d="M204.13,155.93c26.07-11.91,99.85-52.06,15.36-100.62c-11.49-6.6-24.55-10-37.8-10h-7.11l13.07,114.19h0
		C193.33,159.5,198.96,158.29,204.13,155.93z"/>
	<polygon points="264.46,42.79 264.46,51.27 348.61,50.35 	"/>
	<polygon points="278.67,159.5 348.61,50.35 268.81,150.1 	"/>
	<polygon points="303.9,50.84 268.81,150.1 315.82,50.84 	"/>
	<polygon points="323.16,50.84 323.16,50.84 342.42,159.5 315.82,50.84 	"/>
	<polygon points="374.29,50.35 372.68,159.5 385.98,159.5 	"/>
	<polygon points="441.93,159.5 427.72,159.5 374.29,50.35 	"/>
	<path class="st0" d="M381.59,120.39c0,0,167.97-38.11-7.3-70.03"/>
	<polygon points="474.65,50.35 476.79,159.5 496.97,159.5 	"/>
	<polygon points="549.55,157.89 532.74,157.89 474.65,50.35 	"/>
	<polygon points="552,53.64 561.47,72.29 487.94,115.37 	"/>
	<path d="M414.73,59.4c0,0,32.26,10.68,32.08,13.31c0,0,18.25,11.31-1.51,23.48l-6.15,3.92C439.15,100.12,475.24,78.76,414.73,59.4z
		"/>
	<path d="M214.69,52.78c0,0,37.69,20.98,40.93,35.35c0,0,9.82,16.36-5.52,35.66l-13.4,12.95C236.7,136.75,276.59,89.03,214.69,52.78
		z"/>
	<polygon points="174.57,45.31 169.07,159.5 187.64,159.5 	"/>
	<polygon class="st0" points="551.4,176.41 630.21,20.74 725.29,176.41 638.34,298.27 	"/>
	<line class="st0" x1="551.4" y1="176.41" x2="520.14" y2="129.89"/>
	<path d="M661.61,79.14c4.47,0.74,17.03,7.41,19.22,14.06c0.57,1.74-4.3,2.25-5.88,3.16c-2.32,1.34-5.2,3.81-3.75,7.38
		c2.29,5.66-2.75,23.08-13.61,16.82c-4.23-2.45-7.59-5.19-10.1-7.64c-1.94-1.89-3.38-3.59-4.34-4.83c-0.97-1.25-1.09-2.95-0.31-4.34
		c2.05-3.65,5.14-12.3,11.08-9.95c5.73,2.27,4.1-3.35,3.06-8.41C656.43,82.7,658.88,78.69,661.61,79.14z"/>
	<path d="M640.02,298.95c0,0-28-87.03-19.14-122.09c3.67-14.54,15.61-44.74,33.66-59.05l-6.29-5.14
		c3.69,0.06-41.05,39.91-31.49,93.86C627.48,267.09,640.02,298.95,640.02,298.95z"/>
	<path d="M649.23,113.83c-0.05,1.18-12.25-3.78-11.45-18.35C637.69,90.87,637.58,99.69,649.23,113.83z"/>
	<path d="M663.5,80.07c0,0,1.16-13.47,6.66-14.96c5.5-1.49,7.91-14.79,3.96-15.36c-3.96-0.57,7.8-14.73,10.83-12.84
		c0,0-9,3.5-6.19,13.07s-3.44,16.05-5.79,15.94c-2.35-0.11-7.82,15.12-6.4,15.44S663.5,80.07,663.5,80.07z"/>
	<path d="M671.94,83.87c0,0-1.3-10.83,2.28-11.11c3.58-0.29,3.18-7.57,2.49-7.68c-0.69-0.11,4.93-8.37,7.05-6.36
		c2.12,2.01,0.52-5.16,0.52-5.16s4.83,6.08,0.58,7.34c-4.25,1.26-5.34,6.08-5.34,6.08s-1.61,9.17-4.53,7.8
		c-2.92-1.38-1.67,10.04-1.67,10.04L671.94,83.87z"/>
	<path d="M675.78,86.69c0,0,10.79,1.02,8.33-3.79c-2.46-4.82,2.5-8.43,2.5-8.43s7.24-7.57,1.85-8.08c-5.39-0.52,3.04-8.66,5.45-4.99
		c0,0-7.17,1.61-5.04,3.27c2.12,1.66,5.22,12.67-0.75,11.29c-5.96-1.38-2.18,7.91-2.18,7.91s-3.8,8.67-8.23,4.62L675.78,86.69z"/>
	<path d="M610.49,121.31c0,0-2.42,8.3,2.44,10.91c4.86,2.61,1.84-6.54-1.18-8.61L610.49,121.31z"/>
	<path d="M603.8,138.16c0,0,7.97-7.07,12.84-5.57c0,0,17.16-0.05,16.78,1.87l-0.66,1.06c0,0-13.87-3.4-15.85-1.17
		C614.92,136.6,622.72,138.22,603.8,138.16z"/>
	<path d="M629.87,152.28c0,0,3.51,1.02,5.81-0.42c0,0-3.62,1.89-6.49,1.91L629.87,152.28z"/>
	<path d="M626.62,146.91c0,0-2.68-2.48-2.64-5.19c0,0,0.25,4.08,1.72,6.55L626.62,146.91z"/>
	<path d="M616.25,190.91c0,0-3.62,0.48-5.15,2.72c0,0,2.55-3.19,5.17-4.36L616.25,190.91z"/>
	<path d="M618.81,206.15c0,0,3.65,0.1,5.4,2.16c0,0-2.87-2.9-5.6-3.79L618.81,206.15z"/>
	<path d="M657.91,119.75c0,0-1.11,3.48,0.25,5.81c0,0-1.79-3.67-1.73-6.54L657.91,119.75z"/>
	<path d="M622.09,233.86c0,0,2.72-2.45,2.71-5.15c0,0-0.3,4.07-1.8,6.52L622.09,233.86z"/>
	<path d="M627.6,252.73c0,0-2.02,3.04-1.35,5.66c0,0-0.72-4.02,0.13-6.77L627.6,252.73z"/>
	<path d="M619.47,176.66c0,0,3.12-1.73,4.34-3.87c0,0-2.07,3.19-4.29,5.01L619.47,176.66z"/>
	<path d="M618.61,172.98c0,0-3.18,1.81-3.75,4.45c0,0,1.17-3.91,3.15-5.99L618.61,172.98z"/>
	<path d="M643.2,128.44c0,0-0.92,3.54,0.57,5.79c0,0-1.99-3.57-2.08-6.44L643.2,128.44z"/>
	<path d="M640.05,126.28c0,0-1.1-3.49,0.29-5.81c0,0-1.81,3.66-1.76,6.53L640.05,126.28z"/>
	<path d="M618.62,297.4c0,0-35.76-63.06,17.67-88.33c47.36-22.4,11.98-57.24,11.98-57.24s31.95,29.59,6.08,47.09
		c-29.41,19.89-32.67,21.73-32.67,21.73S597.41,239.69,618.62,297.4z"/>
	<path class="st0" d="M137.86,98.67c0,0-22.78-109.38,104.86-77.05C242.72,21.62,156.43,22.33,137.86,98.67z"/>
</g>
</svg>
