<?xml version="1.0" encoding="utf-8"?>
<!-- Generator: Adobe Illustrator 27.4.0, SVG Export Plug-In . SVG Version: 6.00 Build 0)  -->
<svg version="1.1" id="Layer_1" xmlns="http://www.w3.org/2000/svg" xmlns:xlink="http://www.w3.org/1999/xlink" x="0px" y="0px"
	 viewBox="0 0 594.54 285.69" style="enable-background:new 0 0 594.54 285.69;" xml:space="preserve">
<style type="text/css">
	.st0{fill:none;stroke:#000000;stroke-miterlimit:10;}
</style>
<g>
	<polygon points="34.47,164.82 34.47,176.51 102.48,175.69 	"/>
	<polygon points="99.15,204.11 97.73,216.18 34.47,211.37 	"/>
	<polygon points="91.51,269.17 34.47,270.53 34.47,258.83 	"/>
	<polygon points="103.49,167.11 103.49,276.49 90.65,276.49 	"/>
	<ellipse class="st0" cx="274.74" cy="225.19" rx="48.15" ry="53.66"/>
	<polygon points="417.95,163.15 419.55,272.3 406.25,272.3 	"/>
	<polygon points="350.3,272.3 364.52,272.3 417.95,163.15 	"/>
	<path class="st0" d="M410.65,233.19c0,0-167.97-38.11,7.3-70.03"/>
	<path d="M377.51,172.2c0,0-32.26,10.68-32.08,13.31c0,0-18.25,11.31,1.51,23.48l6.15,3.92C353.09,212.92,317,191.56,377.51,172.2z"
		/>
	<path d="M258.29,174.44c0,0-28.09,12.33-31.7,44.7C226.59,219.13,234.33,189.1,258.29,174.44z"/>
	<path d="M322.03,215.01c0,0,8.15,43.55-33.14,61.48C288.88,276.49,320.8,262.63,322.03,215.01z"/>
	<g>
		<path d="M115.79,183.13c0,0,20.65-16.95,40.85-13.04c0,0,14.98,2.63,21.24,13.93c6.55,11.82,2.19,21.09-3.58,30.8l-7.43,19.47
			C166.87,234.3,191.54,145.42,115.79,183.13z"/>
		<path d="M217.55,271.4c0,0-20.65,16.95-40.85,13.04c0,0-14.98-2.63-21.24-13.93c-6.55-11.82-2.19-21.09,3.58-30.8l7.43-19.47
			C166.46,220.23,141.79,309.11,217.55,271.4z"/>
	</g>
	<path class="st0" d="M70.68,142.67c26.07-11.91,99.85-52.06,15.36-100.62c-11.49-6.6-24.55-10-37.8-10h-7.11l13.07,114.19h0
		C59.88,146.25,65.51,145.04,70.68,142.67z"/>
	<polygon points="131.01,29.53 131.01,38.02 215.16,37.1 	"/>
	<polygon points="145.22,146.25 215.16,37.1 135.36,136.84 	"/>
	<polygon points="170.45,37.59 135.36,136.84 182.37,37.59 	"/>
	<polygon points="189.71,37.59 189.71,37.59 208.97,146.25 182.37,37.59 	"/>
	<polygon points="240.84,37.1 239.24,146.25 252.54,146.25 	"/>
	<polygon points="308.48,146.25 294.27,146.25 240.84,37.1 	"/>
	<path class="st0" d="M248.14,107.13c0,0,167.97-38.11-7.3-70.03"/>
	<polygon points="341.2,37.1 343.34,146.25 363.52,146.25 	"/>
	<polygon points="416.1,144.64 399.29,144.64 341.2,37.1 	"/>
	<polygon points="418.55,40.39 428.03,59.04 354.49,102.11 	"/>
	<path d="M281.28,46.14c0,0,32.26,10.68,32.08,13.31c0,0,18.25,11.31-1.51,23.48l-6.15,3.92C305.7,86.86,341.79,65.51,281.28,46.14z
		"/>
	<path d="M81.24,39.53c0,0,37.69,20.98,40.93,35.35c0,0,9.82,16.36-5.52,35.66l-13.4,12.95C103.25,123.5,143.14,75.78,81.24,39.53z"
		/>
	<polygon points="41.12,32.05 35.62,146.25 54.19,146.25 	"/>
	<polygon class="st0" points="417.95,163.15 496.76,7.49 591.84,163.15 504.9,285.02 	"/>
	<line class="st0" x1="417.95" y1="163.15" x2="386.7" y2="116.64"/>
	<path d="M528.16,65.88c4.47,0.74,17.03,7.41,19.22,14.06c0.57,1.74-4.3,2.25-5.88,3.16c-2.32,1.34-5.2,3.81-3.75,7.38
		c2.29,5.66-2.75,23.08-13.61,16.82c-4.23-2.45-7.59-5.19-10.1-7.64c-1.94-1.89-3.38-3.59-4.34-4.83c-0.97-1.25-1.09-2.95-0.31-4.34
		c2.05-3.65,5.14-12.3,11.08-9.95c5.73,2.27,4.1-3.35,3.06-8.41C522.98,69.45,525.44,65.44,528.16,65.88z"/>
	<path d="M506.57,285.69c0,0-28-87.03-19.14-122.09c3.67-14.54,15.61-44.74,33.66-59.05l-6.29-5.14
		c3.69,0.06-41.05,39.91-31.49,93.86C494.03,253.83,506.57,285.69,506.57,285.69z"/>
	<path d="M515.78,100.58c-0.05,1.18-12.25-3.78-11.45-18.35C504.24,77.62,504.13,86.44,515.78,100.58z"/>
	<path d="M530.05,66.81c0,0,1.16-13.47,6.66-14.96c5.5-1.49,7.91-14.79,3.96-15.36c-3.96-0.57,7.8-14.73,10.83-12.84
		c0,0-9,3.5-6.19,13.07c2.81,9.57-3.44,16.05-5.79,15.94c-2.35-0.11-7.82,15.12-6.4,15.44S530.05,66.81,530.05,66.81z"/>
	<path d="M538.5,70.62c0,0-1.3-10.83,2.28-11.11c3.58-0.29,3.18-7.57,2.49-7.68c-0.69-0.11,4.93-8.37,7.05-6.36
		c2.12,2.01,0.52-5.16,0.52-5.16s4.83,6.08,0.58,7.34s-5.34,6.08-5.34,6.08s-1.61,9.17-4.53,7.8c-2.92-1.38-1.67,10.04-1.67,10.04
		L538.5,70.62z"/>
	<path d="M542.34,73.44c0,0,10.79,1.02,8.33-3.79c-2.46-4.82,2.5-8.43,2.5-8.43s7.24-7.57,1.85-8.08s3.04-8.66,5.45-4.99
		c0,0-7.17,1.61-5.04,3.27c2.12,1.66,5.22,12.67-0.75,11.29c-5.96-1.38-2.18,7.91-2.18,7.91s-3.8,8.67-8.23,4.62L542.34,73.44z"/>
	<path d="M477.04,108.06c0,0-2.42,8.3,2.44,10.91c4.86,2.61,1.84-6.54-1.18-8.61L477.04,108.06z"/>
	<path d="M470.35,124.91c0,0,7.97-7.07,12.84-5.57c0,0,17.16-0.05,16.78,1.87l-0.66,1.06c0,0-13.87-3.4-15.85-1.17
		C481.47,123.34,489.27,124.97,470.35,124.91z"/>
	<path d="M496.42,139.03c0,0,3.51,1.02,5.81-0.42c0,0-3.62,1.89-6.49,1.91L496.42,139.03z"/>
	<path d="M493.17,133.65c0,0-2.68-2.48-2.64-5.19c0,0,0.25,4.08,1.72,6.55L493.17,133.65z"/>
	<path d="M482.8,177.66c0,0-3.62,0.48-5.15,2.72c0,0,2.55-3.19,5.17-4.36L482.8,177.66z"/>
	<path d="M485.36,192.9c0,0,3.65,0.1,5.4,2.16c0,0-2.87-2.9-5.6-3.79L485.36,192.9z"/>
	<path d="M524.46,106.49c0,0-1.11,3.48,0.25,5.81c0,0-1.79-3.67-1.73-6.54L524.46,106.49z"/>
	<path d="M488.64,220.61c0,0,2.72-2.45,2.71-5.15c0,0-0.3,4.07-1.8,6.52L488.64,220.61z"/>
	<path d="M494.16,239.47c0,0-2.02,3.04-1.35,5.66c0,0-0.72-4.02,0.13-6.77L494.16,239.47z"/>
	<path d="M486.02,163.4c0,0,3.12-1.73,4.34-3.87c0,0-2.07,3.19-4.29,5.01L486.02,163.4z"/>
	<path d="M485.17,159.73c0,0-3.18,1.81-3.75,4.45c0,0,1.17-3.91,3.15-5.99L485.17,159.73z"/>
	<path d="M509.75,115.18c0,0-0.92,3.54,0.57,5.79c0,0-1.99-3.57-2.08-6.44L509.75,115.18z"/>
	<path d="M506.61,113.03c0,0-1.1-3.49,0.29-5.81c0,0-1.81,3.66-1.76,6.53L506.61,113.03z"/>
	<path d="M485.17,284.14c0,0-35.76-63.06,17.67-88.33c47.36-22.4,11.98-57.24,11.98-57.24s31.95,29.59,6.08,47.09
		c-29.41,19.89-32.67,21.73-32.67,21.73S463.96,226.44,485.17,284.14z"/>
	<path class="st0" d="M4.41,85.42c0,0-22.78-109.38,104.86-77.05C109.27,8.37,22.98,9.07,4.41,85.42z"/>
</g>
</svg>
